# xmcd
#
# Track frame offsets: 
#        150
#        16589
#        32021
#        51181
#        83566
#        104578
#        121989
#        142870
#        155381
#        174563
#        193514
#        216379
#
# Disc length: 3150 seconds
#
# Revision: 0
# Processed by: cddbd v1.5.2PL0 Copyright (c) Steve Scherf et al.
# Submitted via: ExactAudioCopy v1.3
#
DISCID=960c4c0c
DTITLE=Kelly's Lot - Don't Give My Blues Away
DYEAR=2014
DGENRE=Blues Rock
TTITLE0=Hush Up
TTITLE1=Revolving Door
TTITLE2=Why Don't We
TTITLE3=Woman's Love
TTITLE4=Taking Time
TTITLE5=Right Now
TTITLE6=Boom Boom Boom
TTITLE7=Don't Miss Love
TTITLE8=Stateside
TTITLE9=Reason For The Blues
TTITLE10=That Fool
TTITLE11=Better Way
EXTD=
EXTT0=
EXTT1=
EXTT2=
EXTT3=
EXTT4=
EXTT5=
EXTT6=
EXTT7=
EXTT8=
EXTT9=
EXTT10=
EXTT11=
PLAYORDER=
